<svg class="mr-15 m-width-20" width="20" height="21" viewBox="0 0 20 21" fill="none" xmlns="http://www.w3.org/2000/svg">
<path d="M14.1328 5.6416C15.7995 6.79993 16.9495 8.6416 17.1828 10.7666" stroke="#555555" stroke-width="1.3" stroke-linecap="round" stroke-linejoin="round"></path>
<path d="M2.9082 10.8081C3.12487 8.69144 4.2582 6.84977 5.9082 5.68311" stroke="#555555" stroke-width="1.3" stroke-linecap="round" stroke-linejoin="round"></path>
<path d="M6.82422 17.9502C7.79089 18.4419 8.89089 18.7169 10.0492 18.7169C11.1659 18.7169 12.2159 18.4669 13.1576 18.0085" stroke="#555555" stroke-width="1.3" stroke-linecap="round" stroke-linejoin="round"></path>
<path d="M10.0491 6.91654C11.3285 6.91654 12.3658 5.87933 12.3658 4.59987C12.3658 3.32041 11.3285 2.2832 10.0491 2.2832C8.76963 2.2832 7.73242 3.32041 7.73242 4.59987C7.73242 5.87933 8.76963 6.91654 10.0491 6.91654Z" stroke="#555555" stroke-width="1.3" stroke-linecap="round" stroke-linejoin="round"></path>
<path d="M4.02565 17.1001C5.30511 17.1001 6.34232 16.0629 6.34232 14.7835C6.34232 13.504 5.30511 12.4668 4.02565 12.4668C2.74619 12.4668 1.70898 13.504 1.70898 14.7835C1.70898 16.0629 2.74619 17.1001 4.02565 17.1001Z" stroke="#555555" stroke-width="1.3" stroke-linecap="round" stroke-linejoin="round"></path>
<path d="M15.9749 17.1001C17.2543 17.1001 18.2915 16.0629 18.2915 14.7835C18.2915 13.504 17.2543 12.4668 15.9749 12.4668C14.6954 12.4668 13.6582 13.504 13.6582 14.7835C13.6582 16.0629 14.6954 17.1001 15.9749 17.1001Z" stroke="#555555" stroke-width="1.3" stroke-linecap="round" stroke-linejoin="round"></path>
</svg>