<svg class="mr-15 m-width-20" width="20" height="21" viewBox="0 0 20 21" fill="none" xmlns="http://www.w3.org/2000/svg">
<path d="M17.0158 10.8086C17.7408 11.1002 18.1908 11.9586 18.0241 12.7169L17.6825 14.2669C17.0908 16.9336 14.9991 18.8336 11.9825 18.8336H8.0158C4.99913 18.8336 2.90747 16.9336 2.3158 14.2669L1.97413 12.7169C1.80747 11.9586 2.25746 11.1002 2.98246 10.8086L4.1658 10.3336L8.75748 8.49189C9.55748 8.17523 10.4408 8.17523 11.2408 8.49189L15.8325 10.3336L17.0158 10.8086Z" stroke="#555555" stroke-width="1.3" stroke-linecap="round" stroke-linejoin="round"></path>
<path d="M10 18.8335V8.8335" stroke="#555555" stroke-width="1.3" stroke-linecap="round" stroke-linejoin="round"></path>
<path d="M15.8327 7.1665V10.3332L11.241 8.4915C10.441 8.17483 9.55769 8.17483 8.75769 8.4915L4.16602 10.3332V7.1665C4.16602 5.7915 5.29102 4.6665 6.66602 4.6665H13.3327C14.7077 4.6665 15.8327 5.7915 15.8327 7.1665Z" stroke="#555555" stroke-width="1.3" stroke-linecap="round" stroke-linejoin="round"></path>
<path d="M12.0827 4.6665H7.91602V2.99984C7.91602 2.5415 8.29102 2.1665 8.74935 2.1665H11.2493C11.7077 2.1665 12.0827 2.5415 12.0827 2.99984V4.6665Z" stroke="#555555" stroke-width="1.3" stroke-linecap="round" stroke-linejoin="round"></path>
</svg>